<?xml version="1.0" encoding="utf-8"?>
<!-- Generator: Adobe Illustrator 27.0.0, SVG Export Plug-In . SVG Version: 6.00 Build 0)  -->
<svg version="1.1" id="Layer_1" xmlns="http://www.w3.org/2000/svg" xmlns:xlink="http://www.w3.org/1999/xlink" x="0px" y="0px"
	 viewBox="0 0 708.66 425.2" style="enable-background:new 0 0 708.66 425.2;" xml:space="preserve">
<style type="text/css">
	.st0{fill:none;stroke:#EF4036;stroke-width:10;stroke-linecap:round;stroke-miterlimit:10;}
	.st1{fill:none;stroke:#000000;stroke-width:5;stroke-linecap:round;stroke-miterlimit:10;}
	.st2{fill:none;stroke:#EF4036;stroke-width:5;stroke-linecap:round;stroke-miterlimit:10;}
	.st3{fill:none;}
	.st4{fill:#EF4036;}
	.st5{font-family:'Cafe24Ssurround';}
	.st6{font-size:67.5082px;}
</style>
<path class="st0" d="M365.2,253.13c23.87,0,23.87,12.43,47.75,12.43c23.87,0,23.87-12.43,47.75-12.43
	c23.87,0,23.87,12.43,47.75,12.43c23.87,0,23.87-12.43,47.75-12.43c23.88,0,23.88,12.43,47.75,12.43s23.88-12.43,47.75-12.43"/>
<path class="st1" d="M-60.04,979.1c38.45,0,38.45,20.01,76.9,20.01c38.45,0,38.45-20.01,76.9-20.01c38.45,0,38.45,20.01,76.9,20.01
	c38.45,0,38.45-20.01,76.9-20.01c38.45,0,38.45,20.01,76.9,20.01s38.45-20.01,76.9-20.01"/>
<path class="st2" d="M606.23,277.32c-24.44,0-24.44-12.43-48.89-12.43c-24.44,0-24.44,12.43-48.89,12.43
	c-24.45,0-24.45-12.43-48.89-12.43s-24.45,12.43-48.89,12.43"/>
<path class="st3" d="M108.42,41.68c-0.08,0.17-0.16,0.33-0.24,0.5l1.62,0.41L108.42,41.68z"/>
<path d="M598.61,113.85c-107.64,0-162.44,107.17-177.12,141.16c15.37-2.63,18.33-11.72,38.75-11.72c23.87,0,23.87,12.43,47.75,12.43
	c23.87,0,23.87-12.43,47.75-12.43c7.54,0,12.7,1.24,16.99,2.94c-24.16-25.08-20.71-55-9.9-80.05l-13.05-8.63l15.21,3.9
	c0.08-0.17,0.16-0.33,0.24-0.5l-13.11-8.67l15.48,3.97C580.59,131.68,598.61,113.85,598.61,113.85z"/>
<text transform="matrix(1 0 0 1 94.8822 219.5731)" class="st4 st5 st6">죠스떡볶이</text>
</svg>
