<?xml version="1.0" encoding="utf-8"?>
<!-- Generator: Adobe Illustrator 27.0.0, SVG Export Plug-In . SVG Version: 6.00 Build 0)  -->
<svg version="1.1" id="Layer_1" xmlns="http://www.w3.org/2000/svg" xmlns:xlink="http://www.w3.org/1999/xlink" x="0px" y="0px"
	 viewBox="0 0 708.66 425.2" style="enable-background:new 0 0 708.66 425.2;" xml:space="preserve">
<style type="text/css">
	.st0{fill:none;stroke:#000000;stroke-width:10;stroke-linecap:round;stroke-miterlimit:10;}
	.st1{fill:none;stroke:#000000;stroke-width:5;stroke-linecap:round;stroke-miterlimit:10;}
	.st2{fill:none;}
</style>
<g>
	<path class="st0" d="M123.64,290.4c38.45,0,38.45,20.01,76.9,20.01c38.45,0,38.45-20.01,76.9-20.01c38.45,0,38.45,20.01,76.9,20.01
		c38.45,0,38.45-20.01,76.9-20.01c38.45,0,38.45,20.01,76.9,20.01s38.45-20.01,76.9-20.01"/>
</g>
<path class="st1" d="M-60.04,979.1c38.45,0,38.45,20.01,76.9,20.01c38.45,0,38.45-20.01,76.9-20.01c38.45,0,38.45,20.01,76.9,20.01
	c38.45,0,38.45-20.01,76.9-20.01c38.45,0,38.45,20.01,76.9,20.01s38.45-20.01,76.9-20.01"/>
<path class="st1" d="M511.8,329.36c-39.37,0-39.37-20.01-78.73-20.01c-39.37,0-39.37,20.01-78.73,20.01
	c-39.37,0-39.37-20.01-78.74-20.01s-39.37,20.01-78.74,20.01"/>
<path class="st2" d="M266.75,38.73c-0.13,0.27-0.26,0.53-0.38,0.8l2.6,0.67L266.75,38.73z"/>
<path d="M499.53,66.09c-173.35,0-261.61,172.59-285.25,227.34c24.75-4.24,29.53-18.87,62.41-18.87c38.45,0,38.45,20.01,76.9,20.01
	c38.45,0,38.45-20.01,76.9-20.01c12.15,0,20.46,2,27.35,4.73c-38.91-40.38-33.35-88.58-15.94-128.92l-21.02-13.9l24.49,6.28
	c0.13-0.27,0.25-0.53,0.38-0.8L424.65,128l24.94,6.4C470.51,94.8,499.53,66.09,499.53,66.09z"/>
</svg>
