<?xml version="1.0" encoding="utf-8"?>
<!-- Generator: Adobe Illustrator 27.0.0, SVG Export Plug-In . SVG Version: 6.00 Build 0)  -->
<svg version="1.1" id="Layer_1" xmlns="http://www.w3.org/2000/svg" xmlns:xlink="http://www.w3.org/1999/xlink" x="0px" y="0px"
	 viewBox="0 0 708.66 425.2" style="enable-background:new 0 0 708.66 425.2;" xml:space="preserve">
<style type="text/css">
	.st0{fill:none;stroke:#000000;stroke-width:5;stroke-linecap:round;stroke-miterlimit:10;}
	.st1{fill:none;}
	.st2{fill:none;stroke:#EF4036;stroke-width:10;stroke-linecap:round;stroke-miterlimit:10;}
	.st3{fill:none;stroke:#EF4036;stroke-width:5;stroke-linecap:round;stroke-miterlimit:10;}
	.st4{fill:#EF4036;}
</style>
<path class="st0" d="M-60.04,979.1c38.45,0,38.45,20.01,76.9,20.01c38.45,0,38.45-20.01,76.9-20.01c38.45,0,38.45,20.01,76.9,20.01
	c38.45,0,38.45-20.01,76.9-20.01c38.45,0,38.45,20.01,76.9,20.01s38.45-20.01,76.9-20.01"/>
<path class="st1" d="M109.22,71.08c-0.08,0.17-0.16,0.33-0.24,0.5l1.62,0.41L109.22,71.08z"/>
<g>
	<path class="st2" d="M212.69,210.82c23.87,0,23.87,12.43,47.75,12.43c23.87,0,23.87-12.43,47.75-12.43
		c23.87,0,23.87,12.43,47.75,12.43c23.87,0,23.87-12.43,47.75-12.43c23.88,0,23.88,12.43,47.75,12.43
		c23.88,0,23.88-12.43,47.75-12.43"/>
	<path class="st3" d="M453.72,235.01c-24.44,0-24.44-12.43-48.89-12.43c-24.44,0-24.44,12.43-48.89,12.43
		c-24.45,0-24.45-12.43-48.89-12.43s-24.45,12.43-48.89,12.43"/>
	<path d="M446.09,71.53c-107.64,0-162.44,107.17-177.12,141.16c15.37-2.63,18.33-11.72,38.75-11.72c23.87,0,23.87,12.43,47.75,12.43
		c23.87,0,23.87-12.43,47.75-12.43c7.54,0,12.7,1.24,16.99,2.94c-24.16-25.08-20.71-55-9.9-80.05l-13.05-8.63l15.21,3.9
		c0.08-0.17,0.16-0.33,0.24-0.5l-13.11-8.67l15.48,3.97C428.08,89.36,446.09,71.53,446.09,71.53z"/>
</g>
<g>
	<path class="st4" d="M216.2,315.17c-1.18,0-2.14-0.13-2.9-0.38c-0.76-0.25-1.35-0.58-1.77-0.98c-0.42-0.4-0.7-0.86-0.85-1.39
		c-0.15-0.53-0.22-1.04-0.22-1.54c0-0.63,0.07-1.21,0.22-1.73c0.15-0.53,0.43-0.99,0.85-1.39c0.42-0.4,1.01-0.72,1.77-0.95
		s1.72-0.35,2.9-0.35h7.25v-7.32c0-2.1,0.51-3.54,1.55-4.32c1.03-0.78,2.22-1.17,3.56-1.17c0.67,0,1.31,0.08,1.92,0.25
		c0.61,0.17,1.15,0.46,1.61,0.88c0.46,0.42,0.84,0.99,1.14,1.7c0.29,0.72,0.44,1.6,0.44,2.65v7.32h8.96v-7.32
		c0-2.1,0.51-3.54,1.55-4.32c1.03-0.78,2.22-1.17,3.56-1.17c0.67,0,1.31,0.08,1.92,0.25c0.61,0.17,1.15,0.46,1.61,0.88
		c0.46,0.42,0.84,0.99,1.14,1.7c0.29,0.72,0.44,1.6,0.44,2.65v7.32h7.19c1.18,0,2.14,0.12,2.9,0.35s1.35,0.55,1.77,0.95
		c0.42,0.4,0.7,0.86,0.85,1.39c0.15,0.53,0.22,1.1,0.22,1.73c0,0.5-0.07,1.02-0.22,1.54c-0.15,0.53-0.43,0.99-0.85,1.39
		c-0.42,0.4-1.01,0.73-1.77,0.98c-0.76,0.25-1.72,0.38-2.9,0.38H216.2z M251.65,292.9c-1.77-0.84-3.46-1.82-5.08-2.93
		c-1.62-1.11-3.12-2.32-4.51-3.63s-2.63-2.63-3.72-3.97c-1.14,1.3-2.4,2.59-3.78,3.85c-1.39,1.26-2.84,2.43-4.35,3.5
		c-1.51,1.07-3.07,2.01-4.67,2.81c-1.6,0.8-3.18,1.41-4.73,1.83c-0.59,0.17-1.23,0.28-1.92,0.35c-0.69,0.06-1.38,0.03-2.05-0.09
		c-0.72-0.17-1.39-0.48-2.02-0.95c-0.63-0.46-1.09-1.18-1.39-2.14c-0.46-1.51-0.34-2.81,0.38-3.88c0.71-1.07,1.85-1.9,3.41-2.49
		c1.77-0.67,3.54-1.49,5.33-2.46c1.79-0.97,3.44-2.05,4.95-3.25c1.51-1.2,2.84-2.58,3.97-4.13c0.97-1.3,1.53-2.69,1.7-4.16h-11.42
		c-1.18,0-2.14-0.13-2.9-0.38c-0.76-0.25-1.35-0.58-1.77-0.98c-0.42-0.4-0.7-0.86-0.85-1.39c-0.15-0.53-0.22-1.04-0.22-1.55
		c0-0.63,0.07-1.21,0.22-1.73c0.15-0.53,0.43-0.99,0.85-1.39c0.42-0.4,1.01-0.71,1.77-0.95c0.76-0.23,1.72-0.35,2.9-0.35h32.55
		c1.18,0,2.14,0.12,2.9,0.35c0.76,0.23,1.35,0.55,1.77,0.95c0.42,0.4,0.7,0.86,0.85,1.39c0.15,0.53,0.22,1.1,0.22,1.73
		c0,0.5-0.07,1.02-0.22,1.55c-0.15,0.53-0.43,0.99-0.85,1.39c-0.42,0.4-1.01,0.72-1.77,0.98c-0.76,0.25-1.72,0.38-2.9,0.38h-10.53
		c0.17,1.47,0.67,2.88,1.51,4.23c1.01,1.6,2.18,3.04,3.5,4.32c1.32,1.28,2.85,2.41,4.57,3.37c1.72,0.97,3.49,1.7,5.3,2.21
		c1.6,0.46,2.81,1.2,3.63,2.21c0.82,1.01,1.06,2.29,0.73,3.85c-0.38,1.64-1.35,2.73-2.9,3.28c-0.46,0.17-0.95,0.27-1.45,0.32
		c-0.5,0.04-1.01,0-1.51-0.13C255.24,294.38,253.41,293.74,251.65,292.9z"/>
	<path class="st4" d="M276.12,315.17c-1.18,0-2.14-0.13-2.9-0.38c-0.76-0.25-1.35-0.58-1.77-0.98c-0.42-0.4-0.7-0.86-0.85-1.39
		c-0.15-0.53-0.22-1.04-0.22-1.54c0-0.63,0.07-1.21,0.22-1.73c0.15-0.53,0.43-0.99,0.85-1.39c0.42-0.4,1.01-0.72,1.77-0.95
		s1.72-0.35,2.9-0.35h43.84c1.18,0,2.14,0.12,2.9,0.35s1.35,0.55,1.77,0.95c0.42,0.4,0.7,0.86,0.85,1.39
		c0.15,0.53,0.22,1.1,0.22,1.73c0,0.5-0.07,1.02-0.22,1.54c-0.15,0.53-0.43,0.99-0.85,1.39c-0.42,0.4-1.01,0.73-1.77,0.98
		c-0.76,0.25-1.72,0.38-2.9,0.38H276.12z M311.57,292.59c-1.77-0.84-3.46-1.82-5.08-2.93c-1.62-1.11-3.12-2.32-4.51-3.63
		c-1.39-1.3-2.63-2.63-3.72-3.97c-1.14,1.3-2.4,2.59-3.78,3.85c-1.39,1.26-2.84,2.43-4.35,3.5c-1.51,1.07-3.07,2.01-4.67,2.81
		c-1.6,0.8-3.18,1.41-4.73,1.83c-0.59,0.17-1.23,0.28-1.92,0.35c-0.69,0.06-1.38,0.03-2.05-0.09c-0.72-0.17-1.39-0.48-2.02-0.95
		c-0.63-0.46-1.09-1.18-1.39-2.14c-0.46-1.51-0.34-2.81,0.38-3.88c0.71-1.07,1.85-1.9,3.41-2.49c1.81-0.67,3.66-1.52,5.55-2.55
		s3.6-2.18,5.14-3.44c1.53-1.26,2.8-2.64,3.78-4.13c0.99-1.49,1.5-3.04,1.55-4.64v-2.46c0-1.05,0.15-1.93,0.44-2.65
		c0.29-0.71,0.68-1.28,1.17-1.7c0.48-0.42,1.04-0.71,1.67-0.88s1.28-0.25,1.96-0.25c0.67,0,1.32,0.08,1.96,0.25s1.19,0.46,1.67,0.88
		c0.48,0.42,0.87,0.99,1.17,1.7c0.29,0.71,0.44,1.6,0.44,2.65v2.46c0.04,1.6,0.49,3.17,1.36,4.7c0.86,1.54,1.99,2.96,3.37,4.29
		s2.96,2.5,4.73,3.53s3.6,1.82,5.49,2.37c1.6,0.46,2.81,1.2,3.63,2.21c0.82,1.01,1.06,2.29,0.73,3.85c-0.38,1.64-1.35,2.73-2.9,3.28
		c-0.46,0.17-0.95,0.27-1.45,0.31c-0.5,0.04-1.01,0-1.51-0.13C315.16,294.06,313.33,293.43,311.57,292.59z"/>
	<path class="st4" d="M336.29,291.77c-1.18,0-2.1-0.12-2.78-0.35c-0.67-0.23-1.19-0.55-1.55-0.95c-0.36-0.4-0.58-0.86-0.66-1.39
		c-0.08-0.53-0.13-1.1-0.13-1.73v-19.74c0-0.8,0.04-1.52,0.13-2.18c0.08-0.65,0.3-1.2,0.66-1.64c0.36-0.44,0.87-0.78,1.55-1.01
		c0.67-0.23,1.6-0.35,2.78-0.35h5.68c2.06,0,3.43,0.43,4.1,1.29c0.67,0.86,1.01,1.9,1.01,3.12c0,0.5-0.07,1.01-0.22,1.51
		c-0.15,0.5-0.41,0.96-0.79,1.36c-0.38,0.4-0.9,0.72-1.58,0.95c-0.67,0.23-1.51,0.35-2.52,0.35h-1.83v12.17h2.46
		c1.01,0,1.85,0.12,2.52,0.35c0.67,0.23,1.2,0.55,1.58,0.95c0.38,0.4,0.64,0.85,0.79,1.36c0.15,0.5,0.22,1.01,0.22,1.51
		c0,1.22-0.34,2.26-1.01,3.12c-0.67,0.86-2.04,1.29-4.1,1.29H336.29z M373.28,315.45c-1.03-0.78-1.55-2.22-1.55-4.32v-7.32h-31.6
		c-1.18,0-2.14-0.13-2.9-0.38c-0.76-0.25-1.35-0.58-1.77-0.98c-0.42-0.4-0.71-0.86-0.85-1.39c-0.15-0.53-0.22-1.04-0.22-1.55
		c0-0.63,0.07-1.21,0.22-1.73c0.15-0.53,0.43-0.99,0.85-1.39c0.42-0.4,1.01-0.71,1.77-0.95c0.76-0.23,1.72-0.35,2.9-0.35h36.71
		c1.18,0,2.1,0.12,2.78,0.35c0.67,0.23,1.19,0.55,1.54,0.95c0.36,0.4,0.58,0.86,0.66,1.39c0.08,0.53,0.13,1.1,0.13,1.73v11.61
		c0,1.05-0.15,1.93-0.44,2.65c-0.29,0.71-0.67,1.28-1.14,1.7c-0.46,0.42-1,0.71-1.61,0.88c-0.61,0.17-1.25,0.25-1.92,0.25
		C375.5,316.62,374.31,316.23,373.28,315.45z M354.64,291.77c-1.18,0-2.1-0.12-2.77-0.35c-0.67-0.23-1.19-0.55-1.55-0.95
		c-0.36-0.4-0.58-0.86-0.66-1.39c-0.08-0.53-0.13-1.1-0.13-1.73v-19.74c0-0.8,0.04-1.52,0.13-2.18c0.08-0.65,0.3-1.2,0.66-1.64
		c0.36-0.44,0.87-0.78,1.55-1.01c0.67-0.23,1.6-0.35,2.77-0.35h5.36c2.06,0,3.43,0.43,4.1,1.29c0.67,0.86,1.01,1.9,1.01,3.12
		c0,0.5-0.07,1.01-0.22,1.51c-0.15,0.5-0.41,0.96-0.79,1.36c-0.38,0.4-0.9,0.72-1.58,0.95c-0.67,0.23-1.51,0.35-2.52,0.35h-1.51
		v12.17h2.78c1.01,0,1.85,0.12,2.52,0.35c0.67,0.23,1.2,0.55,1.58,0.95c0.38,0.4,0.64,0.85,0.79,1.36c0.15,0.5,0.22,1.01,0.22,1.51
		c0,1.22-0.34,2.26-1.01,3.12c-0.67,0.86-2.04,1.29-4.1,1.29H354.64z M375.11,292.27c-0.61-0.17-1.16-0.46-1.64-0.88
		c-0.48-0.42-0.86-0.99-1.14-1.7c-0.27-0.71-0.41-1.62-0.41-2.71v-5.93h-2.96c-1.18,0-2.12-0.12-2.84-0.35
		c-0.72-0.23-1.27-0.56-1.67-0.98c-0.4-0.42-0.66-0.89-0.79-1.42c-0.13-0.53-0.19-1.1-0.19-1.73c0-0.5,0.06-1.02,0.19-1.55
		c0.13-0.53,0.39-1,0.79-1.42c0.4-0.42,0.96-0.76,1.67-1.01c0.71-0.25,1.66-0.38,2.84-0.38h2.96v-4.92c0-2.1,0.51-3.54,1.55-4.32
		c1.03-0.78,2.22-1.17,3.56-1.17c0.67,0,1.31,0.08,1.92,0.25c0.61,0.17,1.15,0.46,1.61,0.88c0.46,0.42,0.84,0.99,1.13,1.7
		s0.44,1.6,0.44,2.65v19.68c0,1.09-0.15,2-0.44,2.71s-0.67,1.28-1.13,1.7c-0.46,0.42-1,0.71-1.61,0.88
		c-0.61,0.17-1.25,0.25-1.92,0.25C376.36,292.53,375.72,292.44,375.11,292.27z"/>
	<path class="st4" d="M394.95,297c-1.05,0-1.89-0.1-2.52-0.32c-0.63-0.21-1.12-0.5-1.45-0.88c-0.34-0.38-0.56-0.81-0.66-1.29
		c-0.11-0.48-0.16-1.02-0.16-1.61c0-0.46,0.05-0.94,0.16-1.42c0.1-0.48,0.33-0.91,0.66-1.29c0.34-0.38,0.82-0.69,1.45-0.95
		c0.63-0.25,1.47-0.38,2.52-0.38h17.72v-3.47h-12.99c-1.18,0-2.1-0.12-2.78-0.35s-1.19-0.55-1.54-0.95
		c-0.36-0.4-0.58-0.86-0.66-1.39c-0.08-0.53-0.13-1.1-0.13-1.73v-13.06c0-2.1,0.49-3.54,1.48-4.32c0.99-0.78,2.15-1.17,3.5-1.17
		c1.3,0,2.5,0.38,3.59,1.14s1.66,2.14,1.7,4.16h25.99c0.04-2.02,0.6-3.41,1.67-4.16s2.28-1.14,3.63-1.14c0.67,0,1.3,0.08,1.89,0.25
		c0.59,0.17,1.11,0.46,1.58,0.88c0.46,0.42,0.83,0.99,1.1,1.7c0.27,0.71,0.41,1.6,0.41,2.65v13.06c0,0.63-0.04,1.21-0.13,1.73
		c-0.08,0.53-0.31,0.99-0.66,1.39c-0.36,0.4-0.87,0.71-1.54,0.95c-0.67,0.23-1.6,0.35-2.78,0.35h-13.12v3.47h17.91
		c1.05,0,1.89,0.13,2.52,0.38c0.63,0.25,1.11,0.57,1.45,0.95c0.34,0.38,0.56,0.81,0.66,1.29c0.1,0.48,0.16,0.96,0.16,1.42
		c0,0.59-0.05,1.12-0.16,1.61c-0.11,0.48-0.33,0.91-0.66,1.29c-0.34,0.38-0.82,0.67-1.45,0.88c-0.63,0.21-1.47,0.32-2.52,0.32
		H394.95z M407.78,315.45c-1.03-0.78-1.55-2.22-1.55-4.32v-2.96h-6.43c-1.18,0-2.14-0.12-2.9-0.35s-1.35-0.55-1.77-0.95
		c-0.42-0.4-0.71-0.85-0.85-1.36c-0.15-0.5-0.22-1.01-0.22-1.51c0-0.63,0.07-1.21,0.22-1.73c0.15-0.53,0.43-0.98,0.85-1.36
		c0.42-0.38,1.01-0.67,1.77-0.88c0.76-0.21,1.72-0.32,2.9-0.32h11.54c1.18,0,2.1,0.11,2.78,0.32c0.67,0.21,1.19,0.5,1.54,0.88
		c0.36,0.38,0.58,0.83,0.66,1.36c0.08,0.53,0.13,1.1,0.13,1.73v7.13c0,1.05-0.15,1.93-0.44,2.65c-0.29,0.71-0.67,1.28-1.13,1.7
		c-0.46,0.42-1,0.71-1.61,0.88c-0.61,0.17-1.25,0.25-1.92,0.25C410,316.62,408.81,316.23,407.78,315.45z M430.84,277.96v-2.9h-25.99
		v2.9H430.84z M432.51,315.45c-1.03-0.78-1.55-2.22-1.55-4.32v-2.96h-5.17c-1.18,0-2.14-0.12-2.9-0.35s-1.35-0.55-1.77-0.95
		c-0.42-0.4-0.71-0.85-0.85-1.36c-0.15-0.5-0.22-1.01-0.22-1.51c0-0.63,0.07-1.21,0.22-1.73c0.15-0.53,0.43-0.98,0.85-1.36
		c0.42-0.38,1.01-0.67,1.77-0.88c0.76-0.21,1.72-0.32,2.9-0.32h10.28c1.18,0,2.1,0.12,2.78,0.35c0.67,0.23,1.19,0.55,1.54,0.95
		c0.36,0.4,0.58,0.86,0.66,1.39c0.08,0.53,0.13,1.1,0.13,1.73v7c0,1.05-0.15,1.93-0.44,2.65c-0.29,0.71-0.67,1.28-1.13,1.7
		c-0.46,0.42-1,0.71-1.61,0.88c-0.61,0.17-1.25,0.25-1.92,0.25C434.72,316.62,433.54,316.23,432.51,315.45z"/>
	<path class="st4" d="M459.25,314.47c-1.66-0.55-3.02-1.36-4.07-2.43c-1.05-1.07-1.84-2.4-2.37-3.97c-0.53-1.58-0.85-3.4-0.98-5.46
		c-0.04-0.38-0.06-1.27-0.06-2.68c0-1.41-0.01-3.08-0.03-5.01c-0.02-1.93-0.03-3.99-0.03-6.18c0-2.19,0.01-4.25,0.03-6.18
		c0.02-1.93,0.03-3.59,0.03-4.98s0.02-2.27,0.06-2.65c0.13-2.1,0.44-3.95,0.95-5.55c0.5-1.6,1.28-2.94,2.33-4.04
		c1.05-1.09,2.41-1.92,4.07-2.49s3.73-0.85,6.21-0.85c2.31,0,4.3,0.28,5.96,0.85c1.66,0.57,3.03,1.4,4.1,2.49
		c1.07,1.09,1.89,2.45,2.46,4.07c0.57,1.62,0.91,3.46,1.04,5.52c0,0.38,0.01,1.27,0.03,2.68c0.02,1.41,0.03,3.08,0.03,5.01
		c0,1.93,0.01,4,0.03,6.18c0.02,2.19,0.02,4.25,0,6.18c-0.02,1.93-0.04,3.61-0.06,5.01c-0.02,1.41-0.03,2.28-0.03,2.62
		c-0.08,4.25-1.18,7.42-3.28,9.52c-2.1,2.1-5.53,3.15-10.28,3.15C462.96,315.29,460.91,315.02,459.25,314.47z M466.47,306.62
		c0.38-0.06,0.73-0.24,1.04-0.54c0.32-0.29,0.59-0.7,0.82-1.23c0.23-0.53,0.37-1.27,0.41-2.24c0-0.38,0.01-1.29,0.03-2.74
		c0.02-1.45,0.03-3.14,0.03-5.08v-12.42c0-1.98-0.01-3.66-0.03-5.05c-0.02-1.39-0.03-2.27-0.03-2.65c0-0.88-0.11-1.6-0.32-2.14
		c-0.21-0.55-0.48-0.96-0.82-1.23c-0.34-0.27-0.71-0.45-1.1-0.54s-0.77-0.13-1.1-0.13c-0.34,0-0.69,0.05-1.07,0.16
		c-0.38,0.11-0.73,0.31-1.04,0.6c-0.31,0.29-0.59,0.72-0.82,1.29c-0.23,0.57-0.37,1.29-0.41,2.18c0,0.38-0.01,1.28-0.03,2.71
		c-0.02,1.43-0.04,3.11-0.06,5.05c-0.02,1.93-0.03,4-0.03,6.18s0.01,4.25,0.03,6.18c0.02,1.93,0.03,3.61,0.03,5.01
		c0,1.41,0.02,2.28,0.06,2.62c0,0.97,0.1,1.71,0.32,2.24c0.21,0.53,0.47,0.94,0.79,1.23c0.32,0.29,0.67,0.47,1.07,0.54
		c0.4,0.06,0.79,0.09,1.17,0.09C465.74,306.72,466.09,306.69,466.47,306.62z M494.38,315.67c-0.61-0.17-1.16-0.46-1.64-0.88
		c-0.48-0.42-0.86-0.99-1.14-1.7c-0.27-0.71-0.41-1.62-0.41-2.71V267.3c0-2.1,0.51-3.54,1.55-4.32c1.03-0.78,2.22-1.17,3.56-1.17
		c0.67,0,1.31,0.08,1.92,0.25c0.61,0.17,1.14,0.46,1.61,0.88c0.46,0.42,0.84,0.99,1.13,1.7c0.29,0.71,0.44,1.6,0.44,2.65v43.08
		c0,1.09-0.15,2-0.44,2.71c-0.29,0.71-0.67,1.28-1.13,1.7c-0.46,0.42-1,0.71-1.61,0.88c-0.61,0.17-1.25,0.25-1.92,0.25
		C495.63,315.93,494.99,315.84,494.38,315.67z"/>
</g>
</svg>
